# xmcd CD database file
#
# Track frame offsets:
#	150
#	26519
#	48463
#	71772
#	88899
#	118933
#	145255
#	165154
#	197191
#	213946
#	250728
#	268286
#	290061
#	316931
#	332608
#	353215
#
# Disc length: 4891 seconds
#
# Revision: 0
# Processed by: cddbd v1.4PL0 Copyright (c) Steve Scherf et al.
# Submitted via: Feurio! 1.65 - http://www.feurio.com
#
DISCID=fb131910
DTITLE=US Local Heroes - Best of CD 04
DYEAR=2002
DGENRE=Blues
TTITLE0=Frank Cosentino - Round and Round
TTITLE1=gtblues - That don't Sound like U
TTITLE2=Guy Bergeron - Living in the Valley
TTITLE3=Jared Lee - Cuts me to the Bone
TTITLE4=Jasper Mills Band - Dream Machine
TTITLE5=Exit 66 - Old Man's Face
TTITLE6=Danny Cowan Group - I been mean
TTITLE7=Danny Baker Band - Simple Man
TTITLE8=Buck Naked Beavers - Purgatory Blues
TTITLE9=Bill Davis Band - Same old Blues
TTITLE10=Jeff Woods - Which Way did he go
TTITLE11=Joe Vicino - Feels like Rain
TTITLE12=John Nyasia - Blues from the Future
TTITLE13=Johnny Vandal - Songs from the Suburbs
TTITLE14=Patti Sterling - Surrender
TTITLE15=StikMen - More than Money
EXTD=
EXTT0=
EXTT1=
EXTT2=
EXTT3=
EXTT4=
EXTT5=
EXTT6=
EXTT7=
EXTT8=
EXTT9=
EXTT10=
EXTT11=
EXTT12=
EXTT13=
EXTT14=
EXTT15=
PLAYORDER=
